<?xml version="1.0" encoding="UTF-8"?>
<!-- Do not edit this file with editors other than draw.io -->
<!DOCTYPE svg PUBLIC "-//W3C//DTD SVG 1.1//EN" "http://www.w3.org/Graphics/SVG/1.1/DTD/svg11.dtd">
<svg xmlns="http://www.w3.org/2000/svg" style="background: transparent; background-color: transparent; color-scheme: light dark;" xmlns:xlink="http://www.w3.org/1999/xlink" version="1.1" width="100px" height="150px" viewBox="-0.5 -0.5 100 150" content="&lt;mxfile host=&quot;Electron&quot; agent=&quot;Mozilla/5.0 (Windows NT 10.0; Win64; x64) AppleWebKit/537.36 (KHTML, like Gecko) draw.io/28.2.5 Chrome/138.0.7204.251 Electron/37.6.1 Safari/537.36&quot; version=&quot;28.2.5&quot; scale=&quot;1&quot; border=&quot;0&quot;&gt;&#10;  &lt;diagram name=&quot;Page-1&quot; id=&quot;cU0-BBQgOVqpCuHbn4ei&quot;&gt;&#10;    &lt;mxGraphModel dx=&quot;1985&quot; dy=&quot;802&quot; grid=&quot;1&quot; gridSize=&quot;10&quot; guides=&quot;1&quot; tooltips=&quot;1&quot; connect=&quot;1&quot; arrows=&quot;1&quot; fold=&quot;1&quot; page=&quot;1&quot; pageScale=&quot;1&quot; pageWidth=&quot;827&quot; pageHeight=&quot;1169&quot; math=&quot;0&quot; shadow=&quot;0&quot;&gt;&#10;      &lt;root&gt;&#10;        &lt;mxCell id=&quot;0&quot; /&gt;&#10;        &lt;mxCell id=&quot;1&quot; parent=&quot;0&quot; /&gt;&#10;        &lt;mxCell id=&quot;2&quot; value=&quot;&quot; style=&quot;rounded=0;whiteSpace=wrap;html=1;fillColor=#0a5f2d;strokeColor=none;&quot; vertex=&quot;1&quot; parent=&quot;1&quot;&gt;&#10;          &lt;mxGeometry x=&quot;82&quot; y=&quot;682.5&quot; width=&quot;78&quot; height=&quot;117.5&quot; as=&quot;geometry&quot; /&gt;&#10;        &lt;/mxCell&gt;&#10;        &lt;mxCell id=&quot;3&quot; value=&quot;&quot; style=&quot;sketch=0;points=[[0,0,0],[0.25,0,0],[0.5,0,0],[0.75,0,0],[1,0,0],[0,1,0],[0.25,1,0],[0.5,1,0],[0.75,1,0],[1,1,0],[0,0.25,0],[0,0.5,0],[0,0.75,0],[1,0.25,0],[1,0.5,0],[1,0.75,0]];outlineConnect=0;fillColor=#0a5f2d;strokeColor=#FFFFFF;dashed=0;verticalLabelPosition=bottom;verticalAlign=top;align=center;html=1;fontSize=12;fontStyle=0;aspect=fixed;shape=mxgraph.aws4.resourceIcon;resIcon=mxgraph.aws4.augmented_ai;fontColor=#FFFFFF;&quot; vertex=&quot;1&quot; parent=&quot;1&quot;&gt;&#10;          &lt;mxGeometry x=&quot;82&quot; y=&quot;696&quot; width=&quot;74&quot; height=&quot;74&quot; as=&quot;geometry&quot; /&gt;&#10;        &lt;/mxCell&gt;&#10;        &lt;mxCell id=&quot;4&quot; value=&quot;&quot; style=&quot;verticalLabelPosition=bottom;html=1;verticalAlign=top;align=center;strokeColor=none;fillColor=#eb6969;shape=mxgraph.azure.mobile;pointerEvents=1;&quot; vertex=&quot;1&quot; parent=&quot;1&quot;&gt;&#10;          &lt;mxGeometry x=&quot;71&quot; y=&quot;666.25&quot; width=&quot;100&quot; height=&quot;150&quot; as=&quot;geometry&quot; /&gt;&#10;        &lt;/mxCell&gt;&#10;      &lt;/root&gt;&#10;    &lt;/mxGraphModel&gt;&#10;  &lt;/diagram&gt;&#10;&lt;/mxfile&gt;&#10;"><defs/><g><g data-cell-id="0"><g data-cell-id="1"><g data-cell-id="z0T87XGWviPe4ZV9zTOV-64"><g><rect x="11" y="15.5" width="78" height="117.5" fill="#0a5f2d" stroke="none" pointer-events="all" style="fill: rgb(10, 95, 45);"/></g></g><g data-cell-id="z0T87XGWviPe4ZV9zTOV-63"><g><path d="M 11 29 L 85 29 L 85 103 L 11 103 Z" fill="#0a5f2d" stroke="none" pointer-events="all" style="fill: rgb(10, 95, 45);"/><path d="M 61.24 93.53 C 60.92 89.5 58.77 85.82 55.46 83.73 C 53.63 82.58 51.53 81.97 49.39 81.97 C 43.16 81.97 38.03 87.07 37.53 93.53 Z M 49.41 79.9 C 52.97 79.9 55.87 77 55.87 73.44 C 55.87 69.87 52.97 66.98 49.41 66.98 C 45.85 66.98 42.95 69.87 42.95 73.44 C 42.95 77 45.85 79.9 49.41 79.9 Z M 63.35 94.56 C 63.35 95.14 62.89 95.6 62.31 95.6 L 36.46 95.6 C 35.89 95.6 35.42 95.14 35.42 94.56 C 35.42 88.12 39.41 82.64 44.92 80.68 C 42.5 79.17 40.88 76.49 40.88 73.44 C 40.88 68.73 44.7 64.9 49.41 64.9 C 54.11 64.9 57.94 68.73 57.94 73.44 C 57.94 76.5 56.32 79.18 53.89 80.68 C 54.82 81.01 55.72 81.45 56.56 81.98 C 60.75 84.62 63.35 89.44 63.35 94.56 Z M 27.75 67.78 L 28.81 69.55 L 34.88 65.91 L 38.65 68.19 L 39.72 66.42 L 35.58 63.91 L 35.58 59.44 L 42.31 55.59 C 42.64 55.4 42.84 55.06 42.84 54.69 L 42.84 44.81 L 40.76 44.81 L 40.76 54.09 L 34.56 57.64 L 28.33 54.16 L 28.33 46.37 L 34.55 42.67 L 34.55 49.99 L 36.62 49.99 L 36.62 41.43 L 41.12 38.74 L 48.02 42.06 L 48.02 62.43 L 50.09 62.43 L 50.09 41.41 C 50.09 41.01 49.86 40.65 49.5 40.47 L 41.52 36.63 C 41.2 36.48 40.84 36.5 40.54 36.68 L 26.76 44.89 C 26.45 45.08 26.26 45.42 26.26 45.78 L 26.26 53.63 L 19.66 56.27 C 19.26 56.43 19.01 56.81 19 57.23 L 18.94 72.96 C 18.94 73.32 19.12 73.65 19.43 73.84 L 26.26 78.12 L 26.26 85.02 C 26.26 85.35 26.41 85.66 26.67 85.85 L 32.12 89.94 L 33.37 88.28 L 28.33 84.5 L 28.33 77.55 C 28.33 77.44 28.31 77.33 28.28 77.23 L 34.27 73.64 L 33.2 71.87 L 26.55 75.86 L 21.01 72.39 L 21.04 66.59 L 27.45 62.74 L 26.38 60.96 L 21.05 64.16 L 21.07 57.94 L 26.76 55.66 L 33.51 59.43 L 33.51 64.32 Z M 60.11 68.97 C 60.47 67.79 60.65 66.59 60.65 65.4 C 60.65 59.94 56.99 55.09 51.75 53.62 L 51.19 55.62 C 55.54 56.84 58.57 60.86 58.57 65.4 C 58.57 66.39 58.42 67.39 58.13 68.37 Z M 76.96 70.35 L 73.05 80.58 C 72.95 80.85 72.74 81.06 72.48 81.17 C 72.21 81.28 71.92 81.28 71.66 81.16 L 68.3 79.65 C 68.15 79.88 68.01 80.11 67.88 80.33 C 66.96 81.83 66.16 83.12 64.35 84.49 L 63.1 82.84 C 64.6 81.71 65.23 80.67 66.11 79.24 C 66.39 78.78 66.7 78.29 67.05 77.76 C 67.33 77.34 67.87 77.18 68.34 77.39 L 71.5 78.82 L 74.63 70.63 L 71.3 69.58 C 70.82 69.42 70.52 68.94 70.59 68.44 C 70.96 65.92 70.89 63.37 70.38 60.83 C 70.28 60.33 70.56 59.84 71.03 59.66 L 74.28 58.43 L 70.7 50.43 L 67.61 52.03 C 67.16 52.27 66.61 52.14 66.31 51.74 C 64.75 49.68 62.89 47.92 60.77 46.51 C 60.34 46.23 60.19 45.69 60.4 45.22 L 61.83 42.04 L 53.55 38.89 L 52.34 41.71 L 50.44 40.89 L 52.03 37.16 C 52.25 36.65 52.84 36.4 53.35 36.6 L 63.59 40.5 C 63.86 40.6 64.07 40.8 64.18 41.07 C 64.29 41.33 64.28 41.63 64.17 41.89 L 62.64 45.29 C 64.42 46.57 66.02 48.08 67.42 49.8 L 70.72 48.08 C 70.97 47.95 71.26 47.93 71.53 48.02 C 71.8 48.12 72.02 48.32 72.14 48.58 L 76.62 58.58 C 76.74 58.84 76.75 59.14 76.64 59.4 C 76.53 59.67 76.31 59.87 76.05 59.98 L 72.57 61.29 C 72.93 63.48 72.99 65.68 72.75 67.86 L 76.31 68.99 C 76.58 69.08 76.8 69.27 76.93 69.53 C 77.05 69.79 77.06 70.08 76.96 70.35 Z" fill="#ffffff" stroke="none" pointer-events="all" style="fill: rgb(255, 255, 255);"/></g></g><g data-cell-id="OKAQ2htU_TP-0eDL7N4U-61"/><g data-cell-id="OKAQ2htU_TP-0eDL7N4U-25"/><g data-cell-id="OKAQ2htU_TP-0eDL7N4U-26"/><g data-cell-id="OKAQ2htU_TP-0eDL7N4U-27"/><g data-cell-id="OKAQ2htU_TP-0eDL7N4U-28"/><g data-cell-id="OKAQ2htU_TP-0eDL7N4U-29"/><g data-cell-id="OKAQ2htU_TP-0eDL7N4U-30"/><g data-cell-id="OKAQ2htU_TP-0eDL7N4U-31"/><g data-cell-id="OKAQ2htU_TP-0eDL7N4U-32"/><g data-cell-id="OKAQ2htU_TP-0eDL7N4U-50"/><g data-cell-id="OKAQ2htU_TP-0eDL7N4U-51"/><g data-cell-id="OKAQ2htU_TP-0eDL7N4U-52"/><g data-cell-id="OKAQ2htU_TP-0eDL7N4U-53"/><g data-cell-id="OKAQ2htU_TP-0eDL7N4U-54"/><g data-cell-id="OKAQ2htU_TP-0eDL7N4U-55"/><g data-cell-id="OKAQ2htU_TP-0eDL7N4U-58"/><g data-cell-id="OKAQ2htU_TP-0eDL7N4U-59"/><g data-cell-id="OKAQ2htU_TP-0eDL7N4U-60"/><g data-cell-id="OKAQ2htU_TP-0eDL7N4U-95"/><g data-cell-id="OKAQ2htU_TP-0eDL7N4U-96"/><g data-cell-id="OKAQ2htU_TP-0eDL7N4U-97"/><g data-cell-id="OKAQ2htU_TP-0eDL7N4U-98"/><g data-cell-id="OKAQ2htU_TP-0eDL7N4U-99"/><g data-cell-id="OKAQ2htU_TP-0eDL7N4U-100"/><g data-cell-id="OKAQ2htU_TP-0eDL7N4U-101"/><g data-cell-id="OKAQ2htU_TP-0eDL7N4U-102"/><g data-cell-id="OKAQ2htU_TP-0eDL7N4U-103"/><g data-cell-id="z0T87XGWviPe4ZV9zTOV-13"/><g data-cell-id="z0T87XGWviPe4ZV9zTOV-14"/><g data-cell-id="z0T87XGWviPe4ZV9zTOV-15"/><g data-cell-id="z0T87XGWviPe4ZV9zTOV-16"/><g data-cell-id="z0T87XGWviPe4ZV9zTOV-18"/><g data-cell-id="z0T87XGWviPe4ZV9zTOV-19"/><g data-cell-id="z0T87XGWviPe4ZV9zTOV-20"/><g data-cell-id="z0T87XGWviPe4ZV9zTOV-21"/><g data-cell-id="z0T87XGWviPe4ZV9zTOV-22"/><g data-cell-id="z0T87XGWviPe4ZV9zTOV-23"/><g data-cell-id="z0T87XGWviPe4ZV9zTOV-26"/><g data-cell-id="z0T87XGWviPe4ZV9zTOV-17"/><g data-cell-id="z0T87XGWviPe4ZV9zTOV-27"/><g data-cell-id="z0T87XGWviPe4ZV9zTOV-28"/><g data-cell-id="z0T87XGWviPe4ZV9zTOV-29"/><g data-cell-id="z0T87XGWviPe4ZV9zTOV-30"/><g data-cell-id="z0T87XGWviPe4ZV9zTOV-31"/><g data-cell-id="z0T87XGWviPe4ZV9zTOV-32"/><g data-cell-id="z0T87XGWviPe4ZV9zTOV-33"/><g data-cell-id="z0T87XGWviPe4ZV9zTOV-34"/><g data-cell-id="z0T87XGWviPe4ZV9zTOV-35"/><g data-cell-id="z0T87XGWviPe4ZV9zTOV-36"/><g data-cell-id="z0T87XGWviPe4ZV9zTOV-41"/><g data-cell-id="z0T87XGWviPe4ZV9zTOV-42"/><g data-cell-id="z0T87XGWviPe4ZV9zTOV-43"/><g data-cell-id="z0T87XGWviPe4ZV9zTOV-44"/><g data-cell-id="z0T87XGWviPe4ZV9zTOV-48"/><g data-cell-id="z0T87XGWviPe4ZV9zTOV-49"/><g data-cell-id="z0T87XGWviPe4ZV9zTOV-50"/><g data-cell-id="z0T87XGWviPe4ZV9zTOV-52"/><g data-cell-id="z0T87XGWviPe4ZV9zTOV-53"/><g data-cell-id="z0T87XGWviPe4ZV9zTOV-54"/><g data-cell-id="z0T87XGWviPe4ZV9zTOV-55"/><g data-cell-id="z0T87XGWviPe4ZV9zTOV-56"/><g data-cell-id="z0T87XGWviPe4ZV9zTOV-58"/><g data-cell-id="z0T87XGWviPe4ZV9zTOV-59"/><g data-cell-id="z0T87XGWviPe4ZV9zTOV-60"/><g data-cell-id="z0T87XGWviPe4ZV9zTOV-62"><g><rect x="0" y="-0.75" width="100" height="150" fill="none" stroke="none" pointer-events="all"/><path d="M 0.27 10.9 C 0 7.84 1.06 4.81 3.18 2.6 C 5.29 0.4 8.24 -0.76 11.27 -0.57 L 89.6 -0.57 C 95.17 -0.57 99.76 3.88 100 9.54 L 100 139.74 C 99.7 144.27 96.59 148.09 92.27 149.25 L 8.29 149.25 C 4.18 148.34 1.01 145.01 0.27 140.8 Z M 33.26 4.41 C 31.97 4.83 31.09 6.05 31.09 7.43 C 31.09 8.81 31.97 10.02 33.26 10.44 L 67.45 10.44 C 68.74 10.02 69.62 8.81 69.62 7.43 C 69.62 6.05 68.74 4.83 67.45 4.41 Z M 10.23 14.97 L 10.23 123.3 L 90.34 123.3 L 90.34 14.97 Z M 42.18 132.65 C 40.33 132.65 38.84 134.17 38.84 136.05 C 38.84 137.92 40.33 139.44 42.18 139.44 L 58.98 139.44 C 60.82 139.44 62.32 137.92 62.32 136.05 C 62.32 134.17 60.82 132.65 58.98 132.65 Z" fill="#eb6969" stroke="none" pointer-events="all" style="fill: rgb(235, 105, 105);"/></g></g></g></g></g></svg>